<svg width="326" height="135" viewBox="0 0 326 135" fill="none" xmlns="http://www.w3.org/2000/svg">
<path d="M317.928 54.0211C317.054 53.2991 317.309 52.2153 317.615 51.6265C318.184 50.5203 318.306 49.4301 318.354 48.275C318.588 47.7611 318.583 47.2237 318.475 46.6839C318.843 45.1815 318.144 43.7609 318.146 42.2796C318.148 40.7984 316.912 39.6919 316.921 38.2098C315.703 38.5674 315.431 39.1963 315.935 40.2789C316.064 40.5584 316.845 41.2471 315.641 41.1537C315.597 41.0998 315.548 41.0541 315.498 41.0084C315.175 40.7076 314.778 40.4599 314.713 39.9739C314.708 39.9303 314.702 39.8867 314.696 39.8358C314.673 39.4481 314.301 39.2931 314.133 38.9961C314.155 38.9345 314.177 38.873 314.192 38.8122C314.509 37.8096 314.911 36.8484 315.46 35.9508C315.455 35.4062 315.037 35.0503 314.843 34.5943C314.517 34.456 314.342 34.4693 314.388 34.9207C314.462 35.6709 314.324 36.3725 313.684 36.8828C313.551 36.3165 313.523 35.7082 313.005 35.3126C312.425 35.0791 312.405 34.6614 312.649 34.1684C312.644 34.1321 312.632 34.0893 312.628 34.053C312.644 34.0658 312.667 34.0705 312.683 34.0833C312.915 33.4886 312.588 32.842 312.835 32.2528C312.554 32.2418 312.346 32.1705 312.147 31.9141C311.662 31.3082 311.156 30.7049 310.567 30.2071C310.1 29.8128 309.581 29.0932 308.909 29.9537C308.434 29.5529 309.727 28.8991 308.657 28.635C308.431 28.9049 308.211 29.1666 307.985 29.4365C307.925 29.4215 307.876 29.4421 307.834 29.4618C307.819 29.4635 307.805 29.4725 307.793 29.4887C306.719 29.0704 305.865 28.3313 305.068 27.5707C305.077 26.9582 306.157 27.1842 305.939 26.3994C305.99 26.3934 306.032 26.3737 306.071 26.3322C305.55 25.9738 305.092 25.5269 304.471 25.3276C303.932 24.8756 303.459 24.3052 302.657 24.3188C302.18 23.5206 301.306 23.3586 300.556 22.9977C299.578 22.767 298.843 21.9697 297.818 21.8403C297.164 21.6008 296.599 21.0633 295.828 21.1471C294.704 20.6167 293.568 20.1026 292.338 19.8575C292.216 20.0119 292.128 20.2064 291.971 20.3061C291.641 20.5072 291.311 20.7746 290.891 20.7064C290.726 20.6817 290.714 20.4547 290.77 20.308C290.955 19.8146 291.396 19.8067 291.828 19.7851C291.828 19.7851 291.828 19.7851 291.835 19.7842C291.19 19.2489 290.346 19.275 289.607 19.0087C288.898 18.6871 288.189 18.3583 287.368 18.5216C287.751 19.3238 288.394 19.3436 289.083 19.2475C289.17 19.2372 289.257 19.2269 289.343 19.2093C289.189 19.4633 288.942 19.743 289.404 19.9095C289.911 20.0853 289.761 20.3757 289.592 20.6904C289.49 20.7024 289.4 20.6837 289.315 20.6568C288.884 20.5014 288.687 19.891 288.185 19.884C288.126 19.8836 288.066 19.876 288.003 19.8982C288.028 20.05 288.052 20.1945 288.078 20.3462C287.493 20.7616 286.885 20.664 286.282 20.4258C285.787 20.2264 285.522 20.2945 285.562 20.8203C285.566 20.8567 285.571 20.893 285.576 20.9366C285.524 20.9943 285.517 21.0615 285.548 21.1388C285.502 21.1812 285.455 21.2235 285.409 21.2731C285.33 21.3488 285.25 21.4245 285.177 21.4921C283.959 21.7835 283.267 20.7895 282.351 20.3304C282.421 20.241 282.485 20.1598 282.556 20.0704C282.542 20.0131 282.515 19.9721 282.495 19.9302C282.263 19.464 281.776 19.5215 281.648 19.8755C281.203 21.0924 280.106 21.1041 279.174 21.4427C279.149 21.4235 279.125 21.4043 279.101 21.385C279.036 21.3338 278.963 21.2834 278.897 21.2248C279.029 21.0914 279.298 20.9344 279.278 20.8262C279.068 19.7384 279.784 19.1895 280.499 18.6262C280.616 18.6197 280.733 18.6132 280.85 18.6067C281.15 18.5861 281.443 18.5735 281.758 18.6836C282.128 18.8168 282.213 18.5415 282.116 18.2213C281.376 18.1319 281.919 17.3605 281.518 17.0909C281.169 16.9406 280.861 17.0139 280.571 17.2398C280.316 17.0783 280.069 16.9233 279.814 16.7618C279.743 16.7187 279.672 16.6828 279.594 16.6405C279.526 17.2527 279.144 17.3273 278.745 17.3745C278.468 17.4072 278.19 17.418 277.988 17.5818C277.781 16.9506 277.17 16.7722 276.69 16.4531L276.676 16.4548C276.427 16.4032 276.378 16.6743 276.209 16.7458C276.18 16.7492 276.151 16.7526 276.115 16.7569C275.694 16.755 275.047 16.3304 275.07 17.1456C275.078 17.211 275.078 17.2773 275.088 17.3572C274.745 17.3241 274.298 17.4726 274.491 16.7941C274.579 16.4816 274.41 16.111 274.171 15.8371C273.393 15.7375 272.627 15.4301 271.82 15.6435C270.905 15.0737 270.47 15.8177 269.955 16.3207C269.374 15.7704 269.054 14.8062 267.966 15.0821C267.783 15.03 267.601 14.9852 267.418 14.9332C266.46 15.3706 266.276 16.0555 267.073 16.5655C267.52 16.8517 267.383 17.3173 267.701 17.5744C267.742 17.6137 267.789 17.6304 267.836 17.6616C267.836 17.6616 267.844 17.6607 267.852 17.6671C267.891 17.6846 267.917 17.7184 267.956 17.7359C267.679 18.2623 267.767 18.5687 268.424 18.3953C269.161 18.2051 269.595 18.5148 269.857 19.1691C269.879 19.2918 269.9 19.4072 269.906 19.5243C269.941 19.9403 269.86 20.3182 269.406 20.5929C268.959 20.8667 268.794 20.4662 268.53 20.2838C268.615 19.5737 267.715 19.437 267.654 18.7958C267.644 18.7159 267.314 18.7254 267.282 18.8913C267.19 19.359 266.875 19.3152 266.587 19.3051C266.543 19.3102 266.506 19.3072 266.461 19.3051C266.389 19.3137 266.323 19.3215 266.26 19.3437C266.175 19.3758 266.098 19.4143 266.014 19.4464C265.455 19.2693 265.019 18.8861 264.553 18.558C264.552 18.4845 264.59 18.4358 264.629 18.3943C264.823 18.224 265.316 18.2836 265.121 17.8131C265.793 17.5199 266.163 17.093 265.542 16.4517C265.19 16.0881 265.176 15.9718 265.663 15.7891C265.874 15.7052 265.78 15.4731 265.575 15.3573C265.558 15.212 265.525 15.0611 265.501 14.9166C264.645 14.6568 263.771 14.62 262.885 14.7321C262.674 14.3812 262.398 14.4728 262.122 14.6307C261.895 14.6428 261.668 14.6549 261.441 14.667C261.223 14.0738 260.781 14.3249 260.391 14.3931C258.744 14.0426 257.067 14.005 255.397 13.9665C254.372 13.5866 253.242 14.1254 252.231 13.6113C251.866 13.4554 251.916 14.8789 251.281 13.8635C251.209 13.7541 250.755 14.0288 250.793 14.2306C250.978 15.2329 250.196 15.9075 249.996 16.7711C249.926 16.6835 249.861 16.625 249.796 16.5737C249.563 16.4097 249.312 16.4688 249.065 16.5643C248.959 16.6062 248.855 16.6554 248.749 16.6974C248.504 16.5569 248.259 16.4164 248.022 16.2823C247.957 15.9215 247.908 15.5663 247.957 15.229C248.007 14.9062 248.141 14.6103 248.456 14.3447C248.996 14.9219 249.154 13.9527 249.606 14.032C249.674 14.0461 249.496 13.6619 249.365 13.4931C248.964 13.4668 248.57 13.4396 248.17 13.4206C247.671 13.5017 247.166 13.6498 246.678 13.3906C246.537 13.3779 246.388 13.366 246.247 13.3532C245.451 13.4767 245.899 13.969 245.951 14.346C245.98 14.4015 245.987 14.4597 246.007 14.5088C246.187 15.1581 245.505 15.6808 245.655 16.3263C245.655 16.3263 245.519 16.3644 245.44 16.3811C244.883 16.3438 244.318 16.3 243.786 16.4734C243.7 16.4983 243.609 16.5313 243.526 16.5779C243.498 16.3454 243.463 16.1137 243.43 15.8893C243.417 15.7803 243.426 15.6759 243.444 15.578C243.492 15.2997 243.624 15.041 243.672 14.7627C243.733 14.4019 243.793 14.1 243.941 13.9204C244.016 13.8674 244.09 13.8071 244.181 13.7668C244.352 13.7171 244.584 13.7487 244.925 13.8925C245.422 14.1064 245.296 13.5982 245.255 13.3157C244.623 13.2651 243.99 13.0231 243.352 13.2975C242.644 13.2927 241.936 13.2879 241.228 13.2832C240.896 13.2192 240.572 13.1617 240.241 13.0977L240.254 13.214C240.217 13.211 240.188 13.2145 240.15 13.2042C239.022 13.0723 238.913 13.7705 239.025 14.6561C239.027 14.6707 239.028 14.6852 239.031 14.707C239.303 15.2643 239.259 15.8222 239.007 16.3751C238.93 16.2883 238.86 16.1935 238.805 16.0969C238.386 15.4242 238.262 14.5621 237.563 14.07C237.531 14.0443 237.498 14.0187 237.466 13.9931C237.85 13.6308 238.141 13.2869 237.368 13.0467C236.741 13.0397 236.115 13.0401 235.488 13.0331C235.714 13.3233 235.94 13.6134 236.182 13.9164C235.863 14.2709 235.532 14.1553 235.203 13.9879C235.189 13.9968 235.183 14.005 235.17 14.0212C235.168 14.0067 235.167 13.9922 235.172 13.9768C235.047 13.8516 235.062 13.5404 234.785 13.632C234.488 13.7335 234.442 14.0336 234.386 14.3055C233.804 15.0595 233.245 15.0666 232.714 14.2525C232.803 14.0652 232.828 13.9075 232.784 13.7211C232.779 13.6775 232.759 13.6356 232.739 13.5865C232.673 13.4027 232.544 13.1894 232.355 12.895C232.023 12.8973 231.725 12.9253 231.726 13.3745C231.728 13.8901 231.299 13.6903 231.042 13.7575C230.639 13.5914 230.812 12.871 230.373 12.8935C229.604 12.9328 228.811 12.5844 228.052 12.9614C227.975 12.9336 227.902 12.935 227.832 12.9726C227.201 12.9294 226.573 12.6646 225.946 12.9672C226.278 13.2889 226.381 13.9694 227.038 13.796C227.082 13.7908 227.125 13.7856 227.174 13.7578C227.306 14.1254 227.393 14.4909 227.218 14.88C226.717 14.8802 226.81 14.1103 226.2 14.1824C226.354 14.6799 226.945 15.0007 226.77 15.9498C226.207 14.8078 224.586 14.6163 225.39 13.0697C225.33 13.062 225.27 13.0471 225.21 13.0394C224.665 12.6101 224.094 12.9502 223.54 13.001C223.103 12.6695 222.579 12.7903 222.183 12.9256C221.278 13.2535 220.409 13.4446 219.493 13.0446C218.942 12.9991 218.389 13.3076 217.846 13.0108C217.875 13.0736 217.867 13.1262 217.837 13.1886C217.795 13.2083 217.754 13.2353 217.72 13.2614C217.198 13.581 217.048 13.9893 217.511 14.5461C217.534 14.4255 217.593 14.3669 217.671 14.3429C217.904 14.2565 218.298 14.4089 218.416 14.1592C218.445 14.0967 218.459 14.0215 218.446 13.9125C219.399 13.8735 218.546 14.7627 218.992 14.9826C218.953 15.0241 218.913 15.0583 218.872 15.0853C218.28 15.5678 217.991 14.9904 217.628 14.6576C217.587 14.6256 217.553 14.5854 217.513 14.5606C217.336 14.6847 217.151 14.8023 216.974 14.9264C216.96 14.9354 216.939 14.9452 216.927 14.9615C216.512 14.3842 216.091 13.815 215.677 13.2377C215.208 13.0793 214.735 13.0616 214.255 13.1183L214.307 13.1858C214.307 13.1858 214.249 13.1927 214.22 13.1961C213.832 13.2198 213.449 13.2209 213.37 13.7976C213.303 14.2918 213.431 14.623 213.836 14.8109C213.883 14.8348 213.929 14.8515 213.983 14.8673C214.065 15.0049 214.155 15.1416 214.245 15.2784C214.17 15.3242 214.087 15.3708 214.01 15.4093C214.01 15.4093 214.01 15.4093 214.011 15.4166C213.693 15.5942 213.375 15.7717 213.058 15.9566C213.043 15.9583 213.03 15.9673 213.023 15.9754C212.707 15.976 212.472 15.8637 212.409 15.5175C212.46 15.4524 212.49 15.39 212.513 15.3357C212.513 15.3357 212.505 15.3293 212.497 15.3229C212.502 15.3075 212.515 15.2913 212.52 15.2686C212.531 15.1126 212.406 14.9946 212.237 14.8673C211.938 14.6448 211.564 14.4753 212.194 14.0692C212.317 13.9884 212.374 13.908 212.38 13.8336C212.329 13.7144 212.264 13.6041 212.194 13.5092C212.086 13.4041 211.956 13.3016 211.892 13.1986C211.739 13.2094 211.592 13.212 211.438 13.2228C209.91 13.0718 208.418 13.3513 206.917 13.5582C205.827 13.687 204.729 13.8167 203.639 13.9455C202.619 14.0367 203.253 15.1628 202.654 15.5209C202.445 15.5603 202.236 15.5408 202.033 15.5058C201.439 15.3993 200.865 15.0986 200.243 15.2605C200.177 14.76 200.582 13.8868 199.432 14.2585C199.357 14.2453 199.276 14.2475 199.198 14.2715C199.198 14.2715 199.187 14.3022 199.181 14.3176C199.135 14.4262 199.101 14.5703 199.043 14.5772C197.499 14.8627 196.451 15.7161 195.942 17.2057C195.787 16.8925 196.052 16.3306 195.314 16.381C194.831 16.4159 195.078 15.9447 195.032 15.6848C195.028 15.6484 195.024 15.6121 195.02 15.5758C195.041 15.5732 195.065 15.5852 195.088 15.5898C195.267 15.3033 195.23 14.9909 195.178 14.6728C194.396 14.4779 193.451 14.5895 193.104 15.139C192.738 15.7202 192.499 15.6968 192.077 15.4888C191.733 15.3232 191.49 15.5139 191.208 15.621C191.105 15.25 190.744 15.1232 190.483 15.1614C189.524 15.2747 188.542 15.0739 187.599 15.3843C187.152 16.0266 186.658 15.7166 186.17 15.4501C186.197 15.4911 186.203 15.542 186.202 15.5937C186.18 15.5963 186.151 15.5997 186.128 15.595C186.128 15.595 186.128 15.595 186.129 15.6023C185.723 15.5914 185.153 15.445 185.106 15.9221C185.145 15.4459 185.723 15.5914 186.129 15.6023C186.146 15.5561 186.155 15.5108 186.171 15.4573C184.418 15.3993 182.691 15.6917 180.958 15.926C180.333 15.9999 179.452 15.8388 179.167 16.2997C178.643 17.1648 178.357 16.3587 177.968 16.3162C177.083 16.3102 176.098 16.1983 175.37 16.6527C174.855 16.9715 174.448 17.0123 173.935 16.9771C172.027 16.8562 170.168 17.2086 168.286 17.4311C167.646 17.5066 167.007 17.5822 166.368 17.665C165.75 17.738 165.133 17.811 164.515 17.884C163.799 17.9319 163.052 17.8506 162.423 18.3229C161.964 18.1855 161.734 18.3527 161.731 18.832C161.032 18.7156 160.385 18.0405 159.625 18.6535C159.593 18.6352 159.562 18.6241 159.532 18.613C159.001 18.3662 158.483 18.6558 157.954 18.6668C157.876 18.757 157.798 18.84 157.719 18.923C156.917 18.9367 156.12 18.9867 155.343 19.2038L154.231 19.3352C154.137 19.7884 154.684 19.8048 154.648 20.0006C154.579 20.4067 155.009 20.9306 154.424 21.2208C153.972 21.4437 153.484 21.1845 153.481 20.8459C153.434 19.142 152.396 19.5226 151.417 19.7193C151.396 19.7219 151.366 19.7253 151.345 19.7279C151.361 19.6817 151.363 19.63 151.365 19.5855C150.5 19.754 149.637 19.9297 148.78 20.0973C147.304 19.8296 145.958 20.475 144.549 20.7078C143.547 20.8926 142.538 21.0855 141.536 21.2703C140.124 21.1129 138.923 21.9843 137.514 22.0329C135.951 22.085 134.4 22.5557 132.841 22.8284C132.378 22.9051 131.986 23.0178 132.003 23.5906C131.546 24.094 131.489 24.1081 131.321 23.5606C131.168 23.0776 130.852 23.2107 130.572 23.266C128.852 23.6166 127.141 23.9809 125.423 24.346C124.364 24.4197 123.321 24.5724 122.314 24.9051C122.26 24.8893 122.189 24.9051 122.115 24.9655C119.579 25.523 117.036 26.074 114.501 26.6315C113.855 26.649 113.196 26.6237 112.644 27.0647C112.219 27.0854 111.811 27.1263 111.498 27.4654C110.972 27.756 110.353 27.1292 109.837 27.6322C109.686 27.6647 109.536 27.6973 109.384 27.7226C108.811 27.7387 108.242 27.7912 107.744 28.1228C107.282 28.0153 106.987 28.389 106.604 28.5154C106.172 28.2865 105.771 28.5107 105.363 28.6105C103.228 29.128 101.092 29.631 98.9489 30.1421C97.8775 29.9298 96.9514 30.5108 96.0244 30.8341C95.232 31.1119 94.3355 30.9452 93.5966 31.3641C93.5094 31.3744 93.4329 31.413 93.3778 31.5079C92.9499 31.6911 92.512 32.0376 92.09 32.0211C91.091 31.9845 90.2541 32.2602 89.4931 32.8659C89.0106 32.3998 88.6526 32.8621 88.2611 33.041C87.6239 33.3226 86.9548 33.8954 86.3507 33.8341C84.6283 33.6619 83.1714 34.4899 81.5864 34.7951C80.1959 34.9373 78.951 35.5634 77.6405 35.9467C77.2425 36.0084 76.9739 36.416 76.5322 36.3576C75.7697 36.6393 74.8899 36.5517 74.1985 37.0608C73.3303 37.8192 72.0989 37.5005 71.1836 38.1097C68.8461 38.9681 66.5087 39.8264 64.1712 40.6847C63.7099 40.7098 63.3437 40.9152 63.0374 41.2535C61.208 41.7349 59.5948 42.7361 57.8189 43.3586C57.3646 43.567 56.9184 43.7819 56.4649 43.9975C56.5543 43.9428 56.6068 43.9513 56.6466 43.9761C56.5885 43.9829 56.5231 43.9907 56.4649 43.9975C56.2214 44.3063 55.9313 44.5322 55.5342 44.6012C54.4583 44.7873 53.7158 45.7371 52.6203 45.8814C52.047 45.8312 51.7249 46.3482 51.2312 46.4729C50.83 46.7561 50.2396 46.6859 49.9504 47.1695C49.7919 47.2619 49.6252 47.3479 49.4667 47.4404C48.6318 47.4211 48.2347 48.3007 47.5457 48.581C47.349 48.538 47.1443 48.4885 46.958 48.6579C46.8058 48.7422 46.6545 48.8337 46.4951 48.9189C46.2236 49.4889 45.4889 49.1336 45.151 49.5788C44.919 49.6725 44.7934 49.8568 44.7328 50.0924C44.5246 50.1391 44.3173 50.1931 44.1019 50.2407C44.2414 50.4231 44.5373 50.5576 44.3083 50.8647C44.0921 51.1555 43.8398 50.8906 43.6072 50.9181C43.5603 51.0194 43.506 51.1216 43.4591 51.2229C43.2992 51.2418 43.1466 51.2599 42.9867 51.2788C42.6578 51.7376 42.953 52.2406 42.8917 52.7194C42.7319 52.8636 42.7072 53.0286 42.7133 53.2047C42.7224 53.4689 42.8222 53.7518 42.7261 53.999C42.7039 54.0606 42.6672 54.1238 42.6078 54.1824L42.6356 54.2307C42.4903 54.2479 42.3714 54.2398 42.2581 54.2164C41.7951 54.1016 41.676 53.5926 41.6185 53.2309C41.4572 52.1153 40.696 52.3453 40.0034 52.346C39.6596 52.9909 40.4744 53.0272 40.5751 53.4427C40.106 53.8371 39.6448 53.3021 39.1755 53.446C38.7365 53.4094 38.333 53.4866 38.0284 53.8394C37.6013 53.7794 37.2282 53.9266 36.8799 54.1594C36.2551 54.4837 35.4617 54.6291 35.3784 55.5452C35.3032 55.532 35.2224 55.5342 35.1442 55.5582C34.6746 55.201 34.4863 55.6654 34.209 55.875C33.0966 56.5001 31.994 57.1462 30.8645 57.7513C29.5974 58.4389 28.5197 59.421 27.2111 60.0693C26.6055 60.3693 25.8072 60.7216 25.838 61.6684C25.5978 61.6305 25.3639 61.5845 25.1236 61.5465C24.8233 61.8105 24.7329 62.2927 24.2387 62.3511C23.063 62.8143 22.2924 63.9001 21.0978 64.3286C20.3643 64.6069 20.0262 65.3616 19.3873 65.7539C19.0856 65.9443 18.7757 66.1283 18.474 66.3187C17.9754 66.7755 17.6526 67.4105 17.0106 67.7147C16.6842 67.9449 16.3316 68.1413 16.1565 68.5304C16.645 69.0474 17.0313 69.6354 17.2937 70.297C17.275 70.3877 17.2553 70.471 17.2284 70.5553C17.0595 71.1205 16.7296 71.4468 15.9891 71.166C15.2912 70.8726 15.0391 70.173 14.6079 69.6418C14.3581 70.084 13.7032 70.2793 13.8331 70.9418C14.3218 71.0241 14.599 71.3744 14.8843 71.7312C15.2861 71.6395 15.4017 71.9943 15.6173 72.1972C15.6198 72.219 15.6224 72.2408 15.6258 72.2699C15.6319 72.3208 15.646 72.3781 15.6811 72.4255C15.67 72.4563 15.6589 72.4871 15.6486 72.5251C15.591 72.7235 15.5326 72.9146 15.4677 73.1139C15.6656 72.9799 15.7484 72.8081 15.7171 72.6054C15.7411 72.8089 15.6656 72.9799 15.4677 73.1139C15.4677 73.1139 15.4677 73.1139 15.4604 73.1147C14.8679 73.8995 15.4143 74.7191 15.4489 75.5108C15.4567 75.8267 15.6305 76.1746 15.6572 76.5251C15.5302 76.5106 15.4165 76.5462 15.3045 76.5962C15.0041 76.7349 14.7336 77.0027 14.2949 76.7819C14.9741 75.9206 14.6971 75.0102 14.1417 74.0516C13.9096 74.0201 14.1321 74.5317 13.9026 74.6472C13.8808 74.6498 13.868 74.666 13.8462 74.6686C13.6459 74.2207 13.6807 73.7671 13.8408 73.3135C13.9344 73.2951 14.0019 73.2429 14.0532 73.1779C14.248 72.9559 14.3042 72.5587 14.7672 72.5482C15.0241 72.54 14.8376 72.3336 14.7135 72.1567C14.6866 72.1157 14.6596 72.0746 14.6417 72.0473C14.3219 72.0851 14.0577 71.9689 13.8165 71.7985C13.7515 71.7472 13.6865 71.696 13.6215 71.6447C13.5957 71.4267 13.5763 71.2006 13.5578 70.9817C13.1197 70.9524 12.9899 71.3509 12.737 71.5798C12.3541 71.8313 12.5005 72.1972 12.5336 72.5396C12.5542 72.714 12.6239 72.8678 12.2807 72.8937C10.8858 72.9996 11.0454 74.7859 9.89095 75.1803C9.94228 75.2405 9.99275 75.2935 10.0441 75.3537C9.79225 76.0909 9.12786 76.7662 8.71511 77.1392C7.70416 78.0618 7.48504 79.2003 7.01752 80.2945L7.00298 80.2962C6.83267 80.7879 6.65682 81.295 6.48737 81.794C6.36086 81.8458 6.28139 81.9215 6.35115 82.0753C6.29493 82.4725 6.23871 82.8697 6.18249 83.2668C5.95194 83.8099 5.95438 84.3917 5.91151 84.9641C5.70315 85.4456 5.77608 85.938 5.87808 86.427C6.03524 87.7568 5.93978 89.1312 6.60945 90.371C6.54933 90.6728 6.75676 90.8694 6.88684 91.0972C7.03218 91.08 7.24509 91.1359 7.32371 91.0529C7.77788 90.594 7.65541 90.1811 7.46026 89.7768C7.3537 89.561 7.22534 89.3477 7.14785 89.1284C7.87295 89.2785 7.21755 88.3465 7.75661 88.3565C7.84771 88.4415 7.93967 88.5338 8.02436 88.627C8.76518 89.4089 9.24961 90.3906 9.38649 91.3617C9.51135 92.2312 9.90025 92.0305 10.35 92.0952C10.5666 92.6812 11.1815 93.0211 11.2879 93.6717C10.9499 93.9917 10.6089 94.2235 10.2905 93.6496C10.0663 93.2487 9.70286 93.0412 9.27617 92.9221C9.36535 92.6168 9.50752 92.2611 9.10731 92.1168C8.65195 91.9422 8.80396 92.4179 8.67111 92.6031C8.59593 92.7151 8.4241 92.7576 8.29376 92.8393C8.13303 92.8509 7.97957 92.8617 7.81884 92.8733C7.55149 93.3544 7.8129 93.7582 8.18958 93.8905C8.8352 94.1163 9.11412 94.4812 9.03068 95.1469C9.14173 95.7748 9.26646 96.3937 9.96896 96.6644C10.2256 96.9656 10.4831 97.2741 10.7325 97.5762C11.3559 98.5489 12.201 99.3406 12.9585 100.202C13.0976 100.443 13.1764 100.736 13.4842 100.847C14.0886 101.534 14.7763 102.116 15.6281 102.465C15.7038 102.544 15.7786 102.617 15.8543 102.696C16.3246 103.621 17.2444 103.983 18.0496 104.5C18.3024 104.831 18.6688 105.001 19.0344 105.164C19.6885 106.023 20.8791 106.059 21.5964 106.829C24.78 108.641 27.9764 110.437 31.4913 111.562C32.0242 111.955 32.5771 112.332 33.0972 112.742C34.4956 113.852 35.8582 115.032 37.8288 114.873C38.2911 115.105 38.7785 115.239 39.309 115.177C40.8183 115.853 42.4851 115.803 44.0644 116.199C47.976 117.188 52.0394 117.342 56.0123 117.977C56.4856 118.054 56.8592 117.973 57.1783 117.618C57.276 118.071 57.6381 118.08 57.9917 118.141C61.8223 118.757 65.6881 118.86 69.5573 118.992C70.2453 119.265 70.9629 119.04 71.6606 119.083C77.7593 119.438 83.8581 119.233 89.9522 118.925C90.4797 118.9 91.0547 118.964 91.5068 118.55C92.1648 118.693 92.8282 118.696 93.4955 118.668C101.828 118.288 110.165 117.944 118.514 118.195C122.921 118.33 127.327 118.384 131.74 118.069C135.466 117.798 139.21 117.805 142.944 117.673C146.158 117.558 149.37 117.429 152.583 117.307C155.055 117.273 157.525 117.165 159.981 116.875C164.417 116.683 168.813 116.038 173.217 115.525C178.887 114.869 184.565 114.279 190.228 113.507C197.857 112.465 205.502 111.503 213.118 110.36C213.826 110.305 214.557 110.44 215.236 110.139C217.036 110.154 218.776 109.669 220.58 109.596C223.404 109.483 226.232 109.097 229.026 108.671C238.485 107.229 247.808 105.059 257.171 103.112C262.069 102.099 266.932 100.971 271.803 99.8578C279.91 98.0008 287.741 95.3069 295.385 92.0309C296.658 91.3279 298.202 91.1159 299.22 89.9419C299.516 89.7596 299.811 89.5774 300.106 89.3951C301.213 88.7854 302.418 88.3778 303.454 87.6069C303.786 87.3613 303.689 86.7244 304.191 86.7977C305.399 86.9792 305.979 86.0337 306.774 85.4609C307.252 84.7044 307.837 84.1048 308.777 83.9568C308.952 83.9362 309.098 83.742 309.245 83.6141C312.927 80.6001 315.789 76.9462 317.526 72.5113C318.426 70.2093 319.449 67.9589 320.379 65.6607C320.914 64.33 321.654 63.0416 321.413 61.508C320.969 58.6795 320.259 55.9782 317.916 54.0519L317.928 54.0211ZM268.878 17.1258C268.722 17.1148 268.609 17.0913 268.509 17.0516C268.138 16.9112 268.101 16.5914 268.229 16.1857C268.245 16.1322 268.267 16.0707 268.29 16.0164C268.683 16.2795 269.249 16.4558 268.886 17.125L268.878 17.1258ZM311.256 32.8593C311.256 32.8593 311.249 32.8602 311.242 32.8611C311.242 32.8611 311.241 32.8538 311.24 32.8465C311.24 32.8465 311.24 32.8465 311.241 32.8538L311.256 32.8593ZM313.721 40.8721C314.019 41.0874 314.269 41.3305 314.138 41.7217C314.122 41.7752 314.099 41.8222 314.069 41.8847C313.083 41.898 313.377 41.3917 313.594 40.9166C313.611 40.8777 313.622 40.8469 313.64 40.808C313.663 40.82 313.68 40.8401 313.704 40.852C313.704 40.852 313.72 40.8649 313.728 40.8713L313.721 40.8721ZM304.263 28.0491C304.263 28.0491 304.264 28.0636 304.265 28.0709C304.265 28.0709 304.251 28.0726 304.242 28.0589C304.242 28.0589 304.256 28.0572 304.263 28.0491ZM296.333 25.7957C296.333 25.7957 296.405 25.8461 296.444 25.8636C296.405 25.8461 296.367 25.8286 296.333 25.7957ZM290.899 21.7076C290.953 21.8559 291.105 21.9558 291.187 22.0934C291.252 22.2037 291.283 22.34 291.17 22.5671C290.955 22.9977 290.761 23.5364 291.007 24.1189C291.141 24.4493 290.694 24.2811 290.511 24.3543C290.486 24.3278 290.461 24.3013 290.436 24.2821C289.894 23.8083 289.48 23.2383 289.19 22.5874C289.168 22.5309 289.133 22.4835 289.112 22.4271C289.564 21.8284 290.071 21.378 290.899 21.7148L290.899 21.7076ZM279.182 22.0754C279.248 22.0749 279.309 22.0898 279.376 22.0966C279.309 22.0898 279.249 22.0822 279.182 22.0754ZM282.263 21.085C282.459 21.0618 282.655 21.0386 282.671 21.3609C282.682 21.5734 282.604 21.8479 282.357 21.9433C282.103 22.0396 281.941 21.9777 281.853 21.7893C281.823 21.7264 281.807 21.6546 281.797 21.5674C281.874 21.4109 281.96 21.2608 282.037 21.1043C282.103 21.1039 282.182 21.0872 282.262 21.0777L282.263 21.085ZM275.299 19.0196C275.204 18.5298 276.142 18.1095 275.387 17.5798C275.443 17.5584 275.501 17.5515 275.559 17.5374C275.781 17.489 276.015 17.4687 276.145 17.2618C276.176 17.2139 276.199 17.1596 276.213 17.0916C276.734 17.509 277.242 17.9426 277.789 18.3275C278.062 18.5163 277.918 18.7322 277.943 18.943C277.955 19.2952 278.737 19.3059 278.349 19.8234C277.852 20.4863 277.77 19.6634 277.493 19.5635C277.093 19.4192 276.724 19.4776 276.354 19.6539C276.293 19.6389 276.233 19.6313 276.18 19.6155C276.15 19.6117 276.112 19.6014 276.082 19.5976C275.827 19.6866 275.522 19.6637 275.389 19.9669C276.139 20.954 274.713 20.5478 274.812 21.1919C274.337 20.5407 274.706 20.1729 274.917 19.7795C274.595 19.2354 274.359 19.4844 274.245 19.8884C274.147 20.2463 274.076 20.5789 273.689 20.6689C273.652 20.6731 273.617 20.6847 273.573 20.6899C273.512 20.6677 273.457 20.6446 273.403 20.6216C273.299 20.5528 273.363 20.4715 273.441 20.3813C273.584 20.2171 273.782 20.0242 273.255 19.8064C272.767 19.6062 273.478 19.198 273.841 18.9635C273.855 18.9618 273.868 18.9456 273.882 18.9366C274.336 19.2292 274.823 19.1054 275.299 19.0196ZM264.359 20.2168C264.359 20.2168 264.436 20.2445 264.474 20.2548C264.463 20.2928 264.446 20.3317 264.421 20.3715C264.422 20.3788 264.416 20.3942 264.41 20.4023C264.408 20.3878 264.407 20.3805 264.406 20.366C264.4 20.3151 264.379 20.2659 264.366 20.2159L264.359 20.2168ZM253.072 15.3686C253.133 15.0741 252.875 14.633 253.357 14.4729C253.641 14.3804 253.728 14.5616 253.816 14.7428C253.884 14.8822 253.946 15.0296 254.103 15.0552C254.361 15.3637 254.504 15.7667 254.889 15.9644C254.864 16.0042 254.839 16.044 254.815 16.091C254.784 16.1389 254.754 16.1941 254.723 16.242C254.664 16.2488 254.597 16.242 254.538 16.2416C254.242 16.2251 253.924 16.1522 253.732 16.5285C253.566 16.5555 253.401 16.5898 253.234 16.6168C253.176 16.6237 253.112 16.6387 253.054 16.6528C253.055 16.2253 252.997 15.7902 253.088 15.3814L253.072 15.3686ZM251.372 15.7611C251.416 15.5054 251.469 15.2117 251.789 15.115C252.05 15.202 252.126 15.4067 252.154 15.6466C252.196 16.0026 251.979 16.1609 251.685 16.1662C251.457 16.171 251.335 15.9424 251.371 15.7538L251.372 15.7611ZM241.787 14.4623C241.787 14.4623 241.803 14.4679 241.811 14.4743C241.803 14.4751 241.796 14.476 241.789 14.4769L241.787 14.4623ZM235.33 17.6864C235.33 17.6864 235.328 17.6646 235.32 17.6582C235.32 17.6582 235.32 17.6582 235.327 17.6573C235.328 17.6646 235.33 17.6791 235.33 17.6864ZM235.279 17.3756C235.279 17.3756 235.308 17.3722 235.323 17.3705C235.316 17.3786 235.31 17.3867 235.303 17.3949C235.303 17.3876 235.287 17.3821 235.286 17.3748L235.279 17.3756ZM172.93 18.6948C172.93 18.6948 172.946 18.7076 172.954 18.714C172.954 18.714 172.939 18.7158 172.94 18.723C172.939 18.7158 172.938 18.7012 172.937 18.694L172.93 18.6948ZM168.343 21.0937C168.412 21.1813 168.489 21.2681 168.58 21.3531C168.448 21.3613 168.319 21.3323 168.196 21.2879C168.272 21.2421 168.324 21.1844 168.343 21.0937ZM164.506 21.5472C164.506 21.5472 164.508 21.569 164.51 21.5835C164.508 21.569 164.493 21.5634 164.484 21.5497C164.484 21.5497 164.498 21.548 164.506 21.5472ZM183.041 19.2756C182.934 19.244 182.822 19.2278 182.71 19.2189C182.829 19.227 182.942 19.2431 183.041 19.2756ZM181.241 18.4493C181.358 18.8703 181.584 19.0425 181.86 19.1279C181.585 19.0498 181.358 18.8703 181.234 18.4502L181.241 18.4493ZM189.144 16.3586C189.144 16.3586 189.104 16.3928 189.091 16.4091C189.088 16.3873 189.085 16.3582 189.082 16.3364C189.106 16.3484 189.128 16.3458 189.151 16.3578L189.144 16.3586ZM168.315 18.1791C168.319 18.3407 168.331 18.5015 168.331 18.6267C168.278 18.4857 168.289 18.3296 168.315 18.1791ZM161.339 20.9414C161.339 20.9414 161.331 20.994 161.326 21.0166C161.325 21.0021 161.316 20.9957 161.308 20.9893C161.321 20.973 161.327 20.9576 161.34 20.9486L161.339 20.9414ZM159.322 18.7114C159.322 18.7114 159.321 18.7041 159.313 18.6977C159.313 18.6977 159.314 18.705 159.315 18.7123L159.322 18.7114ZM56.1967 51.6407C55.2414 51.9746 54.6003 52.9715 53.4644 52.8994C52.7924 53.6346 51.7685 53.6377 50.9497 54.066C49.6765 54.7028 48.4034 55.3396 47.1311 55.9836C47.0772 55.9016 47.0224 55.8122 46.9613 55.7311C46.9253 55.6764 46.8902 55.6289 46.8543 55.5742C47.1012 55.2945 47.4299 55.1452 47.7586 54.9958C47.9752 54.8965 48.1992 54.7964 48.3889 54.656C48.4983 54.5842 48.615 54.5114 48.7235 54.4323C48.7573 54.4062 48.7992 54.3865 48.8329 54.3604C49.2685 54.3679 49.5826 54.095 49.936 53.9058C49.9779 53.8862 50.0279 53.8729 50.0698 53.8532C50.1899 53.8095 50.3092 53.7586 50.4365 53.7141C50.4549 53.6824 50.4814 53.6572 50.4997 53.6255C50.551 53.5605 50.5959 53.5037 50.6471 53.4386C51.0796 53.2328 51.5113 53.0197 51.9438 52.8138C51.9583 52.8121 51.972 52.8031 51.9857 52.7941C52.1455 52.7753 52.2981 52.7572 52.458 52.7383C52.6785 52.6091 52.9055 52.4718 53.126 52.3425C53.1405 52.3408 53.1533 52.3246 53.1678 52.3229C54.5012 51.6348 55.8274 50.9475 57.1608 50.2594C58.0775 49.849 58.9934 49.4313 59.9101 49.0208C63.0109 47.7628 66.1108 46.4975 69.2188 45.2387C70.0437 44.9864 70.8785 44.7551 71.6588 44.3756C71.7635 44.3263 71.8691 44.2844 71.9657 44.2288C73.7621 43.6554 75.5487 43.0611 77.3486 42.5168C80.2935 41.6236 83.2508 40.773 86.1983 39.9015C86.3821 39.8356 86.5658 39.7697 86.7569 39.7029C88.0088 39.2602 89.2667 38.8684 90.5832 38.6612C90.5913 38.6676 90.6003 38.6813 90.6157 38.6868C90.7051 38.7573 90.8026 38.8342 90.892 38.9047C89.4295 39.6228 87.8852 40.0853 86.2939 40.3986C83.7936 41.3131 81.295 42.242 78.7848 43.1355C74.0474 44.8227 69.2566 46.3689 64.5736 48.2044C62.5242 49.0066 60.4355 49.725 58.4182 50.6119C57.7593 51.1466 56.9716 51.4018 56.1813 51.6352L56.1967 51.6407ZM36.0661 61.8007C36.0661 61.6754 36.0288 61.5472 35.9907 61.4117C36.0279 61.5399 36.0661 61.6754 36.0734 61.7998L36.0661 61.8007ZM19.5863 101.916C19.6808 101.905 19.7761 101.901 19.8778 101.889C19.7761 101.901 19.6816 101.912 19.5863 101.916ZM18.2862 78.0712C17.1951 80.2485 17.4939 82.7774 16.5405 84.9974C15.4949 87.4346 14.6784 89.9406 14.6004 92.6466C14.5671 93.6747 14.7878 94.6065 15.1191 95.54C15.0533 95.6067 14.9957 95.6798 14.9299 95.7465C14.9098 95.7636 14.897 95.7799 14.8778 95.8043C14.81 95.3554 14.6029 94.9747 14.2847 94.6512C14.1644 94.4444 14.0515 94.2367 13.9312 94.0298C13.703 93.4084 13.483 92.7934 13.2548 92.1719C13.2241 92.2861 13.216 92.4049 13.1609 92.4999C13.1554 92.5152 13.1417 92.5242 13.1353 92.5324L13.1362 92.5396C13.2612 92.8491 13.3289 93.1726 13.4256 93.4928C13.3297 93.1799 13.2612 92.8491 13.137 92.5469C13.137 92.5469 13.1362 92.5396 13.1353 92.5324C13.1588 92.4191 13.1886 92.2976 13.254 92.1647C13.165 92.0352 13.076 91.9057 12.9879 91.7835C13.0988 90.6651 12.6721 89.6103 12.5441 88.5275C12.5415 88.5057 12.5381 88.4767 12.5355 88.4549C12.5373 86.1631 13.1355 83.9925 13.9231 81.8657C13.9948 81.7246 14.0747 81.5899 14.1465 81.4488C14.5342 80.7398 14.9148 80.0317 15.2953 79.3236C16.1057 78.2626 16.9152 77.1943 17.7328 76.1324C18.0139 75.7676 18.3031 75.4092 18.5842 75.0444C18.7218 74.9619 18.8667 74.8784 19.0043 74.7959C19.0009 74.7668 18.9983 74.745 18.9949 74.7159C18.9932 74.7014 18.9914 74.6869 18.9897 74.6723C18.9846 74.6287 18.9803 74.5924 18.9606 74.5505C19.9012 73.9678 20.3858 72.8937 21.3696 72.3648C21.4055 72.4195 21.4423 72.4814 21.4783 72.5361C21.48 72.5507 21.4881 72.5571 21.4971 72.5708C21.5429 72.6464 21.5878 72.7148 21.6336 72.7904C20.0616 74.2656 19.3249 76.2611 18.2862 78.0712ZM10.9344 92.1146C10.9344 92.1146 10.9344 92.1146 10.9417 92.1137L10.9344 92.1146ZM19.962 67.7491C20.069 68.0312 19.8973 68.1988 19.6507 68.2943C19.5169 68.347 19.366 68.3795 19.219 68.3822C18.3469 68.4852 18.4874 68.1149 18.8655 67.6355C18.9283 67.606 18.9911 67.5765 19.0548 67.5542C19.4134 67.4087 19.8195 67.3533 19.962 67.7491ZM26.3661 66.8228C26.3221 66.7617 26.2797 66.7151 26.2365 66.6613C26.3143 66.6963 26.3503 66.751 26.3661 66.8228ZM28.4848 62.0556C28.4848 62.0556 28.4848 62.0556 28.4903 62.0402C28.4903 62.0402 28.4912 62.0475 28.4848 62.0556C28.4848 62.0556 28.4839 62.0484 28.4831 62.0411L28.4839 62.0484L28.4848 62.0556ZM107.739 28.0792C107.739 28.0792 107.739 28.0792 107.731 28.0727L107.739 28.0792ZM102.95 32.2039C102.95 32.2039 102.888 32.2407 102.861 32.2587C102.879 32.227 102.891 32.1963 102.909 32.1646C102.919 32.1856 102.941 32.1902 102.958 32.2031L102.95 32.2039ZM109.279 30.0119C109.18 29.9867 109.099 29.9299 109.025 29.8577C109.109 29.8846 109.202 29.9251 109.289 29.9738C109.291 29.9883 109.285 30.0037 109.279 30.0191L109.279 30.0119ZM106.727 33.4228C106.727 33.4228 106.742 33.4211 106.749 33.4203C106.749 33.4203 106.749 33.4203 106.742 33.4284C106.742 33.4284 106.734 33.422 106.733 33.4147L106.727 33.4228ZM104.891 33.7209C104.891 33.7209 104.874 33.7081 104.866 33.7017C104.866 33.7017 104.883 33.7145 104.891 33.7209ZM104.848 33.6743C104.848 33.6743 104.841 33.6752 104.834 33.676C104.834 33.676 104.832 33.6615 104.839 33.6607C104.839 33.6607 104.841 33.6752 104.849 33.6816L104.848 33.6743ZM96.1197 34.8827C95.4597 34.9092 95.0732 34.7559 95.3134 33.9833C95.4927 34.3158 95.7802 34.6281 96.1197 34.8827ZM94.9955 32.6651C94.9955 32.6651 95.0524 32.71 95.0777 32.7364C95.0524 32.71 95.0272 32.6835 94.9955 32.6651ZM100.087 36.0349C100.259 35.9924 100.431 35.95 100.603 35.9076C100.431 35.95 100.259 35.9924 100.088 36.0421L100.087 36.0349ZM113.14 31.7587L113.154 31.757C113.154 31.757 113.147 31.7578 113.141 31.7659C113.141 31.7659 113.14 31.7587 113.132 31.7523L113.132 31.7595L113.14 31.7587ZM116.024 27.8589C116.024 27.8589 115.985 27.9004 115.965 27.9175C115.985 27.9004 116.004 27.876 116.031 27.858L116.024 27.8589ZM94.6098 32.3938C94.6098 32.3938 94.6175 32.4592 94.6419 32.4785C94.6248 32.4584 94.6141 32.4302 94.6098 32.3938ZM50.6464 48.8188C50.6464 48.8188 50.6464 48.8188 50.6455 48.8115C50.6455 48.8115 50.6455 48.8115 50.6537 48.8179L50.6464 48.8188ZM48.3513 52.2805C48.3513 52.2805 48.3274 52.3276 48.3155 52.3511C48.3129 52.3293 48.3112 52.3147 48.3086 52.2929C48.3231 52.2912 48.3304 52.2904 48.3449 52.2886L48.3513 52.2805ZM50.6801 47.8569C50.6998 47.8988 50.7259 47.9326 50.7447 47.9672C50.7186 47.9334 50.6998 47.8988 50.6801 47.8569ZM44.4249 54.8445C44.4249 54.8445 44.4113 54.8535 44.4049 54.8616C44.4049 54.8616 44.3967 54.8552 44.3886 54.8488C44.395 54.8407 44.4078 54.8244 44.4078 54.8244C44.4078 54.8244 44.416 54.8308 44.4241 54.8372L44.4249 54.8445ZM119.888 29.7528C119.294 30.1545 119.1 29.5732 118.777 29.2652C119.269 29.1332 119.757 28.6482 120.175 29.1883C120.331 29.3909 120.086 29.6189 119.889 29.76L119.888 29.7528ZM122.124 28.2875C121.948 28.3525 121.788 28.3714 121.677 28.1193C121.666 28.091 121.65 28.0782 121.646 28.0492C121.622 27.9637 121.605 27.8846 121.595 27.8047C121.581 27.5559 121.685 27.3152 122.009 27.1884C122.051 27.1688 122.093 27.1491 122.126 27.123C122.243 27.0502 122.348 26.942 122.463 26.8548L122.529 26.847C122.591 26.9428 122.671 27.0513 122.742 27.1534C122.85 27.3248 122.93 27.4996 122.865 27.6988C122.837 27.7758 122.796 27.8617 122.718 27.952C122.645 28.0196 122.572 28.0872 122.5 28.162C122.383 28.1757 122.251 28.2429 122.124 28.2875ZM153.297 22.0319C153.306 22.0455 153.321 22.0511 153.33 22.0648C153.316 22.0665 153.295 22.0763 153.274 22.0862C153.279 22.0708 153.284 22.0481 153.297 22.0319ZM130.56 25.4116C130.56 25.4116 130.544 25.406 130.536 25.3996C130.536 25.3996 130.549 25.3834 130.556 25.3752C130.556 25.3752 130.558 25.397 130.56 25.4116ZM125.18 26.0253C125.18 26.0253 125.187 26.0244 125.194 26.0236C125.194 26.0236 125.194 26.0236 125.195 26.0308C125.195 26.0308 125.187 26.0244 125.179 26.018L125.194 26.0163L125.186 26.0172L125.18 26.0253ZM104.552 30.541C104.328 29.8969 103.979 29.6876 103.44 29.8029C103.44 29.8029 103.448 29.8093 103.457 29.8157C103.457 29.8157 103.442 29.8174 103.441 29.8102L103.442 29.8174C103.442 29.8174 103.435 29.8183 103.427 29.8119C103.427 29.8119 103.427 29.8119 103.434 29.811L103.433 29.8038C103.973 29.6958 104.328 29.8969 104.544 30.5419L104.552 30.541ZM91.7317 34.2887C91.6165 34.8107 91.047 34.4801 90.8984 34.844C90.8621 34.8483 90.8257 34.8526 90.7894 34.8569C90.6295 34.8758 90.4735 34.8648 90.3657 34.7007C90.3648 34.6934 90.3494 34.6878 90.3486 34.6806C90.5566 33.5729 91.1082 33.8761 91.7317 34.2887ZM80.1467 36.5789C80.1444 36.2476 79.9954 35.7347 80.425 35.6913C80.8909 35.6436 80.7288 36.1417 80.8076 36.4345C80.823 36.44 80.8311 36.4464 80.8465 36.452C80.8409 36.4674 80.8354 36.4827 80.8298 36.4981C80.6658 36.7312 80.4902 36.9288 80.1661 36.805C80.1661 36.805 80.1661 36.805 80.1588 36.8059C80.1494 36.7259 80.1481 36.6524 80.1459 36.5716L80.1467 36.5789ZM71.3157 38.1678C71.3157 38.1678 71.3012 38.1695 71.2948 38.1776C71.2939 38.1704 71.2931 38.1631 71.2995 38.155C71.2995 38.155 71.3149 38.1605 71.3157 38.1678ZM69.6846 40.8879C69.6846 40.8879 69.6718 40.9041 69.6726 40.9114C69.6726 40.9114 69.6726 40.9114 69.6718 40.9041C69.679 40.9033 69.6846 40.8879 69.6991 40.8862L69.6846 40.8879ZM64.1247 40.8523C64.1247 40.8523 64.1247 40.8523 64.1255 40.8596C63.7538 41.2056 63.1495 41.4539 63.2605 41.9566C63.1567 41.453 63.753 41.1984 64.1255 40.8596L64.1247 40.8523ZM59.0345 43.856C59.0965 43.9444 59.1568 44.0184 59.2253 44.0987C59.5602 44.5012 59.9895 44.7673 60.5427 44.8345C60.5017 44.8615 60.4616 44.8957 60.4287 44.9291C60.0219 45.3529 60.222 46.2356 59.4595 46.392C59.4231 46.3963 59.3868 46.4006 59.3505 46.4049C59.1285 46.2101 58.9343 45.9383 58.5736 46.1283C58.5693 46.092 58.5641 46.0484 58.5598 46.012C58.5555 45.9757 58.5512 45.9394 58.5469 45.903C58.5435 45.874 58.5401 45.8449 58.5366 45.8158C58.5362 45.7496 58.5357 45.6833 58.5207 45.6188C58.528 45.6179 58.5352 45.6171 58.5425 45.6162C59.2345 45.4239 58.785 44.9244 58.7993 44.5469C58.7988 44.4807 58.8138 44.4199 58.8522 44.3712C58.906 44.2027 58.9598 44.0343 59.0135 43.8658L59.0345 43.856ZM50.0711 48.1279C49.9513 47.9873 49.7375 47.9241 49.5904 47.8015C49.7367 47.9169 49.9577 47.9792 50.0711 48.1279ZM39.092 54.7969C39.1592 54.8037 39.2246 54.796 39.2972 54.7874C39.4571 54.7685 39.617 54.7496 39.7495 54.8739C39.7667 54.894 39.7902 54.9059 39.8081 54.9333C39.6441 55.1664 40.1305 55.7278 39.5281 55.6811C39.0827 55.6527 38.8328 55.2843 39.0984 54.7887L39.092 54.7969ZM24.3249 62.7683C24.3758 62.7623 24.4194 62.7571 24.4702 62.7511C24.6374 62.7314 24.8054 62.7189 24.9733 62.7064C24.9733 62.7064 24.9733 62.7064 24.9806 62.7055C25.0114 62.7166 25.0422 62.7277 25.073 62.7388C25.2949 62.8084 25.5672 62.8057 25.7946 62.8599C25.9541 62.9 26.0888 62.9798 26.1748 63.1465C26.2133 63.223 26.2463 63.3149 26.2609 63.4384C26.1823 63.5214 26.1037 63.6044 26.0186 63.6955C25.9571 63.6733 25.8891 63.6592 25.8211 63.6451C25.3017 63.5518 24.7028 63.6594 24.3623 63.147C24.3182 63.0859 24.2814 63.024 24.242 62.9402C24.2642 62.8786 24.2864 62.8171 24.3159 62.7546L24.3249 62.7683ZM11.8917 75.4007C11.8917 75.4007 11.937 75.41 11.9597 75.4147C11.9885 75.7208 12.0181 76.0341 12.0397 76.341C11.6909 76.5075 12.1342 77.2656 11.7692 77.4193C11.6709 77.4604 11.5093 77.4648 11.2494 77.385C11.2477 77.3704 11.2323 77.3649 11.2233 77.3512C10.9418 76.9645 10.6402 76.5949 10.2088 76.3732C10.1853 76.3613 10.169 76.3484 10.1527 76.3356C10.1527 76.2104 10.1462 76.0932 10.1461 75.968C10.1427 75.9389 10.1401 75.9171 10.144 75.8872C10.8808 76.3233 11.2247 75.2437 11.8836 75.3942L11.8917 75.4007ZM9.40916 77.5877C9.40916 77.5877 9.37243 77.651 9.35492 77.6899C9.3532 77.6754 9.33695 77.6625 9.32882 77.6561C9.35617 77.6382 9.38267 77.6129 9.41001 77.595L9.40916 77.5877ZM153.046 117.231C153.482 117.179 153.918 117.069 154.342 116.974C154.069 117.22 153.545 117.216 153.046 117.231ZM157.444 116.851C157.444 116.851 157.415 116.854 157.407 116.848C157.605 116.839 157.796 116.839 157.994 116.83C157.812 116.851 157.631 116.873 157.444 116.851ZM296.529 69.6655C296.04 70.136 295.55 70.6065 295.053 71.0779C294.604 71.3299 294.165 71.6029 293.928 72.095C292.709 73.1233 291.49 74.1589 290.263 75.1881C289.97 75.3849 289.676 75.5817 289.383 75.7785C289.401 75.9384 289.455 76.0794 289.524 76.226C289.731 76.673 290.053 77.0918 289.898 77.6481C289.284 78.3764 288.811 78.1154 288.386 77.4437C288.258 77.2377 288.26 76.8837 287.87 76.9446C287.21 77.7226 286.385 78.2843 285.461 78.6956C285.079 78.9544 284.696 79.206 284.321 79.464C283.488 79.953 282.645 80.4284 281.82 80.9311C279.805 82.1492 277.649 83.1114 275.548 84.1628C275.409 84.2309 275.288 84.3262 275.157 84.408C274.411 85.2035 273.155 84.8583 272.4 85.6401C267.519 87.6096 262.594 89.4517 257.549 90.9689C252.077 92.6176 246.52 93.7239 240.847 94.4827C234.369 95.344 227.882 96.1255 221.39 96.9369C216.257 97.5804 211.102 98.1012 205.97 98.7592C199.43 99.5911 192.844 100.038 186.275 100.571C182.626 100.87 178.981 101.197 175.344 101.598C171.169 102.054 166.957 102.139 162.768 102.487C158.544 102.839 154.324 103.234 150.118 103.739C144.153 104.459 138.169 104.945 132.178 105.314C125.551 105.729 118.906 105.799 112.271 105.898C104.6 106.016 96.9328 106.23 89.2763 106.722C85.9485 106.931 82.7143 106.436 79.4532 106.026C74.1054 105.354 68.8971 104.054 63.6973 102.701C62.6028 102.418 61.5475 101.968 60.3963 101.89C59.769 101.632 59.1251 101.421 58.4364 101.392C56.9879 101.106 55.5169 101.067 54.0565 100.804C51.685 100.377 49.2475 100.326 46.8436 100.124C42.0934 99.3962 37.5036 98.0302 32.9279 96.5963C29.4916 95.514 28.0521 91.0642 28.2861 88.244C28.7029 83.2285 32.273 80.3308 35.2756 77.0581C36.7898 75.4055 38.5135 73.905 40.4853 72.7583C41.3366 72.3555 42.0917 71.8242 42.6983 71.0967C44.3406 70.0921 45.9722 69.0593 47.6325 68.0821C50.1612 66.5969 52.6667 65.0408 55.2715 63.7014C60.3773 61.0791 65.7202 58.9666 71.1119 57.0179C74.4474 55.8132 77.7846 54.623 81.1226 53.4401C83.9302 52.4452 86.8325 51.6895 89.566 50.5044C92.2714 49.3299 95.1189 48.6103 97.9087 47.7132C98.4699 47.5364 99.0067 47.3403 99.4541 46.9485C99.9927 47.0174 100.481 46.9082 100.946 46.669C101.016 46.6313 101.086 46.6009 101.148 46.5641C103.163 46.2228 105.103 45.5515 107.073 45.0755C109.236 44.5545 111.451 44.1528 113.624 43.6528C117.146 42.8387 120.665 42.0028 124.183 41.1597C128.346 40.1593 132.611 39.7732 136.836 39.178C141.772 38.4842 146.68 37.6168 151.612 36.8939C155.487 36.3254 159.384 35.9459 163.254 35.3338C165.113 35.0404 166.989 34.8924 168.849 34.6653C170.535 34.466 172.277 34.5549 173.994 34.374C174.146 34.415 174.294 34.4196 174.441 34.417C175.51 34.4822 176.558 34.3068 177.61 34.1678C180.923 34.0194 184.237 33.9446 187.551 33.8034C193.82 33.5415 200.073 32.9645 206.358 33.0176C207.848 33.0331 209.372 33.273 210.867 32.89C211.983 33.0455 213.087 33.2834 214.22 33.1422C217.378 33.4911 220.56 33.5496 223.73 33.6835C226.624 33.7982 229.504 34.099 232.393 34.2291C235.86 34.3867 239.301 35.0706 242.758 35.5168C244.15 35.6986 245.552 35.8423 246.942 36.0096C247.424 36.2252 247.919 36.3583 248.45 36.3029C250.463 36.625 252.469 36.948 254.481 37.2701C255.55 37.4607 256.619 37.6512 257.689 37.849C257.779 37.8677 257.869 37.8792 257.96 37.898C260.256 38.7466 262.733 38.8223 265.066 39.5414C266.823 40.1368 268.515 40.9242 270.346 41.3267C271.98 41.6863 273.479 42.5259 275.166 42.7097C275.753 42.8761 276.341 43.0498 276.928 43.2162C278.407 43.5719 279.794 44.2774 281.344 44.3595C281.961 44.4045 282.431 44.9531 283.086 44.8831C285.951 45.9298 288.898 46.7383 291.718 47.9082C294.027 48.8658 296.371 49.7456 298.692 50.6797C299.001 50.8053 299.255 51.0774 299.536 51.2799C300.115 51.8747 300.599 52.5396 301.009 53.2648C301.31 53.6934 301.61 54.1148 301.904 54.5442C302.375 55.2181 302.775 55.9224 302.866 56.7589C302.998 57.878 303.102 59.0078 303.037 60.1356C303.224 62.7145 301.833 64.4778 300.072 66.1006C298.837 67.2413 297.696 68.5034 296.519 69.7036L296.529 69.6655ZM310.128 47.3757C307.685 45.7264 305.077 44.3547 302.38 43.1703C300.025 42.1297 297.603 41.2149 295.367 39.9392C293.423 38.8279 291.433 37.8252 289.447 36.7999C287.752 35.9244 285.98 35.2054 284.245 34.4232C284.098 34.3669 283.943 34.3041 283.796 34.2478C282.938 33.9071 282.08 33.5664 281.222 33.2257C281.152 33.1971 281.075 33.1694 281.006 33.1407C279.068 31.8961 276.947 31.0931 274.73 30.5372C274.649 30.4804 274.571 30.4382 274.485 30.3967C274.297 30.3083 274.101 30.2653 273.897 30.2231C273.776 30.2005 273.648 30.1787 273.528 30.1561C269.588 28.8018 265.552 27.8199 261.458 27.0953C257.236 26.349 252.958 25.9998 248.691 25.6789C245.346 25.4332 241.996 25.2028 238.643 25.0169C233.592 24.737 228.574 23.9817 223.524 23.6501C215.682 23.1327 207.832 22.4836 199.955 22.7956C195.511 22.9744 191.066 23.3303 186.62 23.5609C181.706 23.8102 176.79 23.9859 171.875 24.2352C169.282 24.3648 166.698 24.5743 164.11 24.7475C161.05 25.1018 157.996 25.448 154.936 25.8023C154.621 25.5006 154.168 25.8489 153.834 25.6379C153.794 25.6131 153.753 25.581 153.719 25.5409C155.184 25.2793 156.655 25.0687 158.142 24.9961C158.156 24.9943 158.164 24.9935 158.178 24.9918C158.642 24.9295 159.099 24.8682 159.564 24.8059C159.662 24.7059 159.707 24.5827 159.736 24.454C159.796 24.0932 159.685 23.6495 160.098 23.2765C160.031 23.896 159.961 24.3021 160.564 24.3561C160.668 24.3659 160.786 24.3667 160.94 24.3559C161.874 24.2823 162.792 24.0634 163.733 24.0479C163.769 24.0436 163.806 24.0394 163.842 24.0351C164.133 24.008 164.425 23.9809 164.709 23.9547C164.724 23.9529 164.738 23.9512 164.753 23.9495C164.899 23.9396 165.053 23.9361 165.2 23.9262C165.203 23.9553 165.215 23.9907 165.225 24.0189C165.229 24.048 165.239 24.0762 165.249 24.0972C166.711 23.8728 168.181 23.7139 169.662 23.5904C172.135 23.3792 174.591 23.0299 177.055 22.7388C179.867 22.4064 182.67 22.0604 185.483 21.7281C187.893 21.4874 190.31 21.2386 192.72 20.9979C195.487 20.7152 198.254 20.4397 201.021 20.157C201.101 20.1475 201.173 20.1389 201.253 20.1295C201.253 20.1295 201.253 20.1295 201.253 20.1222C201.253 20.1222 201.253 20.1222 201.261 20.1286C202.058 20.2629 202.801 19.9466 203.58 19.8619C203.921 20.0058 204.256 20.0326 204.592 20.0076C205.329 19.9499 206.056 19.6208 206.807 19.6721C206.851 19.6743 206.888 19.6772 206.933 19.6793C207.093 19.6605 207.245 19.6424 207.405 19.6235C207.449 19.6184 207.5 19.6196 207.545 19.6217C208.157 19.6304 208.767 19.61 209.374 19.575C209.432 19.5682 209.498 19.5604 209.557 19.5608C210.529 19.4975 211.49 19.3987 212.455 19.2699C212.738 19.2364 213.029 19.2021 213.311 19.154C213.443 19.1531 213.576 19.1522 213.701 19.1521C213.889 19.1815 214.079 19.2327 214.265 19.2476C214.325 19.2552 214.383 19.2484 214.442 19.2488C215.953 19.3134 217.405 18.7586 218.971 18.9198C220.456 19.0759 221.983 19.0943 223.501 18.9076C223.668 18.8878 223.836 18.8753 224.003 18.8483C226.138 18.8391 228.267 18.8307 230.403 18.8214C230.624 18.8247 230.839 18.8361 231.06 18.8394C232.45 18.8742 233.839 18.9089 235.229 18.9437C235.549 19.0974 235.872 19.1477 236.212 19.0338C236.512 19.0204 236.813 19.007 237.112 18.9863C237.514 19.0199 237.923 19.0453 238.324 19.0789C238.479 19.0164 238.695 18.9761 238.795 18.8833C238.874 18.8003 238.874 18.675 238.648 18.4511C238.38 18.1734 238.058 17.9462 237.756 17.6945C237.748 17.6954 237.741 17.6962 237.734 17.6971C237.732 17.6826 237.73 17.668 237.736 17.6526C237.634 17.4142 237.142 17.3691 237.356 16.9902C237.55 16.643 237.93 16.6792 238.28 16.7042C238.742 17.1284 239.093 16.726 239.468 16.5343C239.5 16.5599 239.518 16.5873 239.552 16.6202C240.151 17.1978 240.305 18.0048 240.598 18.7365C240.638 18.8276 240.672 18.9267 240.719 19.0169C240.782 19.0464 240.841 19.054 240.906 19.039C241.987 19.206 243.069 19.0708 244.174 19.198C245.549 19.3598 247.025 19.6274 248.425 19.1304C248.474 19.1098 248.525 19.1038 248.567 19.0841C248.995 19.6525 249.645 19.4799 250.183 19.4753C251.676 19.4536 253.16 19.4772 254.626 19.7902C254.788 19.8521 254.954 19.884 255.119 19.9087C255.84 20.0225 256.569 19.8922 257.292 19.9025C257.658 19.9476 258.015 20.1633 258.405 20.0288C258.434 20.0254 258.469 20.0066 258.497 19.9959C259.287 20.1382 260.116 19.9151 260.896 20.2207C261.149 20.2424 261.395 20.2649 261.648 20.2866C262.876 20.392 264.105 20.5046 265.333 20.61C265.385 20.6112 265.43 20.6206 265.482 20.6219C266.359 20.6804 267.235 20.7389 268.111 20.7975C268.213 20.8444 268.319 20.8688 268.426 20.9076C269.507 21.2589 270.667 21.0334 271.765 21.2277C271.916 21.2542 272.059 21.2814 272.205 21.3305C272.516 21.5958 272.859 21.3785 273.185 21.3988C273.262 21.4266 273.346 21.4462 273.422 21.4667C274.533 21.7628 275.728 21.5257 276.817 21.9497C277.639 22.1104 278.446 22.3318 279.29 22.3057C279.438 22.3031 279.585 22.3005 279.732 22.2978C280.605 22.644 281.519 22.8308 282.453 22.8825C283.414 22.5921 284.269 22.911 285.108 23.335C285.134 23.3098 285.168 23.2837 285.195 23.2585C285.227 23.2251 285.246 23.1935 285.263 23.1546C285.43 22.7591 284.744 22.1255 285.504 21.9472C285.597 21.9288 285.664 21.9283 285.723 21.9287C285.963 21.9666 285.949 22.2261 285.964 22.4749C285.975 22.5694 285.985 22.6566 286.009 22.7348C286.025 22.7404 286.041 22.7532 286.065 22.7651C286.069 22.8015 286.087 22.8288 286.098 22.8643C286.139 22.8963 286.193 22.9194 286.269 22.9326C286.357 22.9958 286.447 23.0663 286.535 23.1295C287.16 22.9894 287.784 22.8493 288.401 22.71C288.465 22.754 288.532 22.8198 288.583 22.8801C288.696 23.0215 288.738 23.1933 288.619 23.3033C287.475 24.2858 288.594 24.2198 289.116 24.394C289.476 24.5135 289.859 24.5714 290.23 24.6529C290.368 24.828 290.551 24.8801 290.763 24.8035C291.38 25.0327 291.993 25.2991 292.673 25.3146C293.754 25.2311 294.509 26.1365 295.514 26.2831C295.589 26.2963 295.664 26.3095 295.739 26.3154L295.746 26.3146C295.824 26.3496 295.902 26.3846 295.98 26.4196C297.066 26.888 298.161 27.3555 299.248 27.8239C299.362 27.7956 299.524 27.7913 299.598 27.7382C299.613 27.7365 299.627 27.7275 299.632 27.7121C299.757 27.5205 299.553 27.4193 299.436 27.3006C299.442 27.2262 299.448 27.1518 299.461 27.0765C299.486 26.8453 299.51 26.614 299.534 26.3827C299.531 26.3536 299.542 26.3228 299.546 26.2929C299.7 26.2894 299.854 26.2859 300.008 26.2751C300.148 25.5954 299.896 24.8294 300.104 24.1637C300.18 23.9264 300.315 23.7041 300.55 23.5069C300.563 23.4906 300.584 23.4808 300.604 23.4637C300.624 23.4466 300.637 23.4303 300.658 23.4205C301.617 23.8671 300.719 24.5037 300.826 25.0363C300.972 25.0191 301.124 25.0011 301.27 24.9839C301.301 25.0023 301.326 25.0215 301.357 25.0398C301.713 25.241 301.937 25.5829 301.93 25.9595C301.913 26.9342 302.357 27.0733 302.956 26.9657C303.1 26.9412 303.257 26.9006 303.421 26.8517C303.702 27.1722 304.024 27.4657 304.057 27.9334C304.046 27.9641 304.028 27.9958 304.016 28.0193C303.494 29.1494 302.882 27.9618 302.325 27.9907C301.886 27.8879 301.663 27.0006 301.626 27.1891C301.462 27.9822 300.671 27.7073 300.313 28.0443C300.266 28.0867 300.228 28.1354 300.198 28.1979C301.046 28.5766 301.895 28.9626 302.735 29.3422C303.533 29.2332 303.965 29.7053 304.316 30.3122C304.493 30.4386 304.678 30.5642 304.855 30.6907C305.051 30.7337 305.224 30.8238 305.391 30.9293C305.623 31.0788 305.822 31.269 306.043 31.4565C306.197 31.571 306.358 31.6919 306.513 31.8136C306.688 31.9256 306.875 32.0139 307.095 32.069C306.872 31.5501 306.823 31.0697 307.273 30.6996C307.845 31.2435 308.574 31.2974 309.296 31.3595C309.363 31.3663 309.423 31.3739 309.49 31.3807C309.463 31.966 309.543 32.5755 308.569 32.1896C308.197 32.0419 307.654 32.2461 307.483 32.7895C308.379 33.5162 308.981 34.4914 309.636 35.4234C309.639 35.4525 309.657 35.4725 309.66 35.5016C309.922 36.2222 310.185 36.9501 310.447 37.6707C310.578 38.031 310.619 38.4388 310.998 38.6519C311.102 38.6027 311.205 38.5389 311.309 38.4825C311.525 38.3759 311.733 38.3292 311.917 38.5728C311.952 38.6202 311.988 38.6749 312.018 38.745C311.91 39.1409 311.77 39.5112 311.373 39.7055C311.113 40.3182 311.275 40.9401 311.34 41.5514C311.55 43.3245 311.404 45.0807 311.148 46.8425C311.042 47.5697 310.864 47.8117 310.128 47.3167L310.128 47.3757ZM316.386 47.7708C316.386 47.7708 316.386 47.7708 316.387 47.778L316.386 47.7708Z" fill="#2257DF"/>
<path d="M203.626 13.8955C203.462 13.8191 203.336 13.8119 203.229 13.8393C203.363 13.8529 203.497 13.8665 203.626 13.8955Z" fill="#2257DF"/>
<path d="M283.018 18.2473C283.018 18.2473 283.076 18.2995 283.102 18.3332C283.109 18.3986 283.118 18.4713 283.118 18.5375C283.099 18.5619 283.086 18.5782 283.074 18.6017C282.932 18.8322 283.043 19.0253 283.176 19.2159C283.186 19.2369 283.203 19.2497 283.212 19.2706C283.147 19.4626 282.864 19.5624 282.852 19.7774C282.852 19.8364 282.866 19.8937 282.905 19.9702C283.104 19.976 283.304 19.9819 283.51 19.9797C284.247 20.6073 284.928 19.6942 285.657 19.8806C285.801 19.9152 285.914 19.6219 285.801 19.5394C285.296 19.1349 285.953 18.6446 285.676 18.2352C285.646 18.1062 285.615 17.9698 285.593 17.8399C285.214 17.811 284.819 17.9018 284.456 17.7015C284.311 17.5272 284.135 17.4743 283.923 17.5509C283.464 17.4062 283.027 17.2 282.523 17.2447C282.404 17.5461 282.278 17.8484 282.159 18.1499C282.161 18.1644 282.148 18.1807 282.141 18.1888C282.156 18.1871 282.17 18.1854 282.185 18.1836C282.473 18.1275 282.762 18.0196 283.01 18.2409L283.018 18.2473ZM285.092 19.1517C285.092 19.1517 285.072 19.1688 285.066 19.1842C285.045 19.1867 285.029 19.1812 285.014 19.1756C285.043 19.1722 285.072 19.1688 285.1 19.1581L285.092 19.1517Z" fill="#2257DF"/>
<path d="M197.466 14.3952C197.019 14.4775 196.475 14.2987 196.215 14.9114C196.639 14.7508 197.298 15.2844 197.467 14.4024L197.466 14.3952Z" fill="#2257DF"/>
</svg>
